<svg xmlns="http://www.w3.org/2000/svg" width="12" height="12">
        <path
          d="M 10.862 1.73 C 10.773 1.641 10.654 1.592 10.529 1.592 C 10.404 1.592 10.284 1.641 10.196 1.73 L 4.655 7.268 L 1.802 4.396 C 1.714 4.307 1.594 4.258 1.47 4.258 C 1.345 4.258 1.225 4.307 1.137 4.396 L 0.137 5.395 C -0.046 5.579 -0.046 5.877 0.137 6.061 L 4.32 10.271 C 4.504 10.453 4.801 10.453 4.986 10.271 L 11.861 3.395 C 11.95 3.307 12 3.187 12 3.061 C 12 2.935 11.95 2.815 11.861 2.727 Z"
          fill="rgb(255, 255, 255)"
        ></path>
      </svg>