<svg xmlns="http://www.w3.org/2000/svg" width="24" height="24"><path d="M 15 2 C 16.589 2 17.902 3.238 17.995 4.824 L 18 5 L 18 8 C 18 8.259 17.9 8.508 17.72 8.694 L 17.625 8.781 L 13.6 12 L 17.625 15.22 C 17.862 15.41 18 15.697 18 16 L 18 19 C 18 20.657 16.657 22 15 22 L 9 22 C 7.343 22 6 20.657 6 19 L 6 16 C 6 15.697 6.138 15.41 6.375 15.22 L 10.4 12 L 6.375 8.78 C 6.173 8.619 6.042 8.385 6.008 8.129 L 6 8 L 6 5 C 6 3.411 7.238 2.098 8.824 2.005 L 9 2 Z M 12 13.281 L 8 16.48 L 8 19 C 8 19.552 8.448 20 9 20 L 15 20 L 15.117 19.993 C 15.62 19.934 16 19.507 16 19 L 16 16.481 Z M 15 4 L 9 4 C 8.493 4 8.066 4.38 8.007 4.883 L 8 5 L 8 6 L 16 6 L 16 5 C 16 4.536 15.682 4.133 15.23 4.026 L 15.117 4.006 Z" fill="rgb(255, 255, 255)"></path></svg>