<svg
          width="13"
          height="13"
          viewBox="0 0 13 13"
          fill="none"
          xmlns="http://www.w3.org/2000/svg"
        >
          <path
            d="M5.46004 0.779785C3.02152 0.779785 1.04004 2.76127 1.04004 5.19979C1.04004 7.6383 3.02152 9.61979 5.46004 9.61979C6.42488 9.61979 7.3166 9.309 8.04379 8.78291L11.4644 12.1954L12.1957 11.4642L8.81566 8.07604C9.47988 7.30213 9.88004 6.29768 9.88004 5.19979C9.88004 2.76127 7.89855 0.779785 5.46004 0.779785ZM5.46004 1.29979C7.61723 1.29979 9.36004 3.0426 9.36004 5.19979C9.36004 7.35697 7.61723 9.09979 5.46004 9.09979C3.30285 9.09979 1.56004 7.35697 1.56004 5.19979C1.56004 3.0426 3.30285 1.29979 5.46004 1.29979Z"
            fill="#7C7C7C"
          />
          </svg>