<svg width="118" height="38" viewBox="0 0 118 38" fill="none" xmlns="http://www.w3.org/2000/svg">
<path d="M23.3255 6L33.2277 23.25H13.4232L23.3255 6Z" fill="#2C43BD" fill-opacity="0.552083"/>
<path d="M9.79384 1L23.7829 14L0 18L9.79384 1Z" fill="#102593"/>
<path d="M10.9441 30.75L23.7829 14L0 18L10.9441 30.75Z" fill="#0952DD"/>
<path d="M20.5817 11L23.3259 6L9.78784 1L20.5817 11Z" fill="#0952DD"/>
<mask id="path-5-inside-1_2444_81" fill="white">
<path d="M49.6031 12.6364V15.6193H39.9298V12.6364H49.6031ZM42.3482 29V11.0916C42.3482 9.99077 42.5754 9.07457 43.03 8.34304C43.4916 7.61151 44.1095 7.06463 44.8837 6.70241C45.6578 6.3402 46.5172 6.15909 47.4618 6.15909C48.1294 6.15909 48.7225 6.21236 49.2409 6.31889C49.7594 6.42543 50.1429 6.52131 50.3915 6.60653L49.6244 9.58949C49.4611 9.53977 49.2551 9.49006 49.0065 9.44034C48.758 9.38352 48.481 9.35511 48.1756 9.35511C47.4583 9.35511 46.9504 9.52912 46.6521 9.87713C46.361 10.218 46.2154 10.7081 46.2154 11.3473V29H42.3482ZM52.6234 29V12.6364H56.4799V29H52.6234ZM54.5623 10.3139C53.9515 10.3139 53.4259 10.1115 52.9856 9.70668C52.5453 9.29474 52.3251 8.80114 52.3251 8.22585C52.3251 7.64347 52.5453 7.14986 52.9856 6.74503C53.4259 6.3331 53.9515 6.12713 54.5623 6.12713C55.1802 6.12713 55.7058 6.3331 56.139 6.74503C56.5793 7.14986 56.7995 7.64347 56.7995 8.22585C56.7995 8.80114 56.5793 9.29474 56.139 9.70668C55.7058 10.1115 55.1802 10.3139 54.5623 10.3139ZM64.3022 19.4119V29H60.4456V12.6364H64.1317V15.4169H64.3235C64.6999 14.5007 65.3 13.7727 66.1239 13.233C66.9549 12.6932 67.9812 12.4233 69.2027 12.4233C70.332 12.4233 71.3157 12.6648 72.1537 13.1477C72.9989 13.6307 73.6523 14.3303 74.114 15.2464C74.5827 16.1626 74.8135 17.2741 74.8064 18.581V29H70.9499V19.1776C70.9499 18.0838 70.6658 17.228 70.0976 16.6101C69.5366 15.9922 68.7589 15.6832 67.7645 15.6832C67.0898 15.6832 66.4897 15.8324 65.9641 16.1307C65.4456 16.4219 65.0373 16.8445 64.739 17.3984C64.4478 17.9524 64.3022 18.6236 64.3022 19.4119ZM81.9975 7.18182V9.35511C81.9975 9.98011 81.8768 10.63 81.6353 11.3047C81.4009 11.9723 81.0777 12.6115 80.6658 13.2223C80.2539 13.826 79.7851 14.3445 79.2596 14.7777L77.4698 13.6165C77.8604 13.027 78.2013 12.3913 78.4925 11.7095C78.7837 11.0206 78.9293 10.2429 78.9293 9.37642V7.18182H81.9975ZM90.5122 29.3196C88.8716 29.3196 87.4547 28.9787 86.2615 28.2969C85.0754 27.608 84.1628 26.6349 83.5236 25.3778C82.8844 24.1136 82.5648 22.6257 82.5648 20.9141C82.5648 19.2308 82.8844 17.7536 83.5236 16.4822C84.1699 15.2038 85.0719 14.2095 86.2296 13.4993C87.3872 12.782 88.7473 12.4233 90.3098 12.4233C91.3183 12.4233 92.27 12.5866 93.1649 12.9134C94.0669 13.233 94.8624 13.7301 95.5513 14.4048C96.2473 15.0795 96.7942 15.9389 97.1919 16.983C97.5896 18.0199 97.7885 19.2557 97.7885 20.6903V21.8729H84.3759V19.2734H94.0918C94.0847 18.5348 93.9249 17.8778 93.6124 17.3026C93.2999 16.7202 92.8631 16.2621 92.302 15.9283C91.748 15.5945 91.1017 15.4276 90.3631 15.4276C89.5747 15.4276 88.8823 15.6193 88.2857 16.0028C87.6891 16.3793 87.2239 16.8764 86.8901 17.4943C86.5634 18.1051 86.3965 18.7763 86.3894 19.5078V21.777C86.3894 22.7287 86.5634 23.5455 86.9114 24.2273C87.2594 24.902 87.7459 25.4205 88.3709 25.7827C88.9959 26.1378 89.7274 26.3153 90.5655 26.3153C91.1266 26.3153 91.6344 26.2372 92.0889 26.081C92.5435 25.9176 92.9377 25.6797 93.2715 25.3672C93.6053 25.0547 93.8574 24.6676 94.0279 24.206L97.6287 24.6108C97.4014 25.5625 96.9682 26.3935 96.329 27.1037C95.6969 27.8068 94.8872 28.3537 93.9 28.7443C92.9128 29.1278 91.7835 29.3196 90.5122 29.3196ZM107.124 29.2876C105.838 29.2876 104.687 28.9574 103.672 28.2969C102.656 27.6364 101.854 26.6776 101.264 25.4205C100.675 24.1634 100.38 22.6364 100.38 20.8395C100.38 19.0213 100.678 17.4872 101.275 16.2372C101.879 14.9801 102.692 14.032 103.714 13.3928C104.737 12.7464 105.877 12.4233 107.134 12.4233C108.093 12.4233 108.881 12.5866 109.499 12.9134C110.117 13.233 110.607 13.62 110.969 14.0746C111.332 14.522 111.612 14.9446 111.811 15.3423H111.971V7.18182H115.838V29H112.045V26.4219H111.811C111.612 26.8196 111.325 27.2422 110.948 27.6896C110.572 28.13 110.075 28.5064 109.457 28.8189C108.839 29.1314 108.061 29.2876 107.124 29.2876ZM108.2 26.1236C109.016 26.1236 109.712 25.9034 110.288 25.4631C110.863 25.0156 111.3 24.3942 111.598 23.5987C111.896 22.8033 112.045 21.8764 112.045 20.8182C112.045 19.7599 111.896 18.8402 111.598 18.0589C111.307 17.2777 110.874 16.6705 110.298 16.2372C109.73 15.804 109.031 15.5874 108.2 15.5874C107.34 15.5874 106.623 15.8111 106.048 16.2585C105.472 16.706 105.039 17.3239 104.748 18.1122C104.457 18.9006 104.311 19.8026 104.311 20.8182C104.311 21.8409 104.457 22.7536 104.748 23.5561C105.046 24.3516 105.483 24.9801 106.058 25.4418C106.641 25.8963 107.354 26.1236 108.2 26.1236Z"/>
</mask>
<path d="M49.6031 12.6364V15.6193H39.9298V12.6364H49.6031ZM42.3482 29V11.0916C42.3482 9.99077 42.5754 9.07457 43.03 8.34304C43.4916 7.61151 44.1095 7.06463 44.8837 6.70241C45.6578 6.3402 46.5172 6.15909 47.4618 6.15909C48.1294 6.15909 48.7225 6.21236 49.2409 6.31889C49.7594 6.42543 50.1429 6.52131 50.3915 6.60653L49.6244 9.58949C49.4611 9.53977 49.2551 9.49006 49.0065 9.44034C48.758 9.38352 48.481 9.35511 48.1756 9.35511C47.4583 9.35511 46.9504 9.52912 46.6521 9.87713C46.361 10.218 46.2154 10.7081 46.2154 11.3473V29H42.3482ZM52.6234 29V12.6364H56.4799V29H52.6234ZM54.5623 10.3139C53.9515 10.3139 53.4259 10.1115 52.9856 9.70668C52.5453 9.29474 52.3251 8.80114 52.3251 8.22585C52.3251 7.64347 52.5453 7.14986 52.9856 6.74503C53.4259 6.3331 53.9515 6.12713 54.5623 6.12713C55.1802 6.12713 55.7058 6.3331 56.139 6.74503C56.5793 7.14986 56.7995 7.64347 56.7995 8.22585C56.7995 8.80114 56.5793 9.29474 56.139 9.70668C55.7058 10.1115 55.1802 10.3139 54.5623 10.3139ZM64.3022 19.4119V29H60.4456V12.6364H64.1317V15.4169H64.3235C64.6999 14.5007 65.3 13.7727 66.1239 13.233C66.9549 12.6932 67.9812 12.4233 69.2027 12.4233C70.332 12.4233 71.3157 12.6648 72.1537 13.1477C72.9989 13.6307 73.6523 14.3303 74.114 15.2464C74.5827 16.1626 74.8135 17.2741 74.8064 18.581V29H70.9499V19.1776C70.9499 18.0838 70.6658 17.228 70.0976 16.6101C69.5366 15.9922 68.7589 15.6832 67.7645 15.6832C67.0898 15.6832 66.4897 15.8324 65.9641 16.1307C65.4456 16.4219 65.0373 16.8445 64.739 17.3984C64.4478 17.9524 64.3022 18.6236 64.3022 19.4119ZM81.9975 7.18182V9.35511C81.9975 9.98011 81.8768 10.63 81.6353 11.3047C81.4009 11.9723 81.0777 12.6115 80.6658 13.2223C80.2539 13.826 79.7851 14.3445 79.2596 14.7777L77.4698 13.6165C77.8604 13.027 78.2013 12.3913 78.4925 11.7095C78.7837 11.0206 78.9293 10.2429 78.9293 9.37642V7.18182H81.9975ZM90.5122 29.3196C88.8716 29.3196 87.4547 28.9787 86.2615 28.2969C85.0754 27.608 84.1628 26.6349 83.5236 25.3778C82.8844 24.1136 82.5648 22.6257 82.5648 20.9141C82.5648 19.2308 82.8844 17.7536 83.5236 16.4822C84.1699 15.2038 85.0719 14.2095 86.2296 13.4993C87.3872 12.782 88.7473 12.4233 90.3098 12.4233C91.3183 12.4233 92.27 12.5866 93.1649 12.9134C94.0669 13.233 94.8624 13.7301 95.5513 14.4048C96.2473 15.0795 96.7942 15.9389 97.1919 16.983C97.5896 18.0199 97.7885 19.2557 97.7885 20.6903V21.8729H84.3759V19.2734H94.0918C94.0847 18.5348 93.9249 17.8778 93.6124 17.3026C93.2999 16.7202 92.8631 16.2621 92.302 15.9283C91.748 15.5945 91.1017 15.4276 90.3631 15.4276C89.5747 15.4276 88.8823 15.6193 88.2857 16.0028C87.6891 16.3793 87.2239 16.8764 86.8901 17.4943C86.5634 18.1051 86.3965 18.7763 86.3894 19.5078V21.777C86.3894 22.7287 86.5634 23.5455 86.9114 24.2273C87.2594 24.902 87.7459 25.4205 88.3709 25.7827C88.9959 26.1378 89.7274 26.3153 90.5655 26.3153C91.1266 26.3153 91.6344 26.2372 92.0889 26.081C92.5435 25.9176 92.9377 25.6797 93.2715 25.3672C93.6053 25.0547 93.8574 24.6676 94.0279 24.206L97.6287 24.6108C97.4014 25.5625 96.9682 26.3935 96.329 27.1037C95.6969 27.8068 94.8872 28.3537 93.9 28.7443C92.9128 29.1278 91.7835 29.3196 90.5122 29.3196ZM107.124 29.2876C105.838 29.2876 104.687 28.9574 103.672 28.2969C102.656 27.6364 101.854 26.6776 101.264 25.4205C100.675 24.1634 100.38 22.6364 100.38 20.8395C100.38 19.0213 100.678 17.4872 101.275 16.2372C101.879 14.9801 102.692 14.032 103.714 13.3928C104.737 12.7464 105.877 12.4233 107.134 12.4233C108.093 12.4233 108.881 12.5866 109.499 12.9134C110.117 13.233 110.607 13.62 110.969 14.0746C111.332 14.522 111.612 14.9446 111.811 15.3423H111.971V7.18182H115.838V29H112.045V26.4219H111.811C111.612 26.8196 111.325 27.2422 110.948 27.6896C110.572 28.13 110.075 28.5064 109.457 28.8189C108.839 29.1314 108.061 29.2876 107.124 29.2876ZM108.2 26.1236C109.016 26.1236 109.712 25.9034 110.288 25.4631C110.863 25.0156 111.3 24.3942 111.598 23.5987C111.896 22.8033 112.045 21.8764 112.045 20.8182C112.045 19.7599 111.896 18.8402 111.598 18.0589C111.307 17.2777 110.874 16.6705 110.298 16.2372C109.73 15.804 109.031 15.5874 108.2 15.5874C107.34 15.5874 106.623 15.8111 106.048 16.2585C105.472 16.706 105.039 17.3239 104.748 18.1122C104.457 18.9006 104.311 19.8026 104.311 20.8182C104.311 21.8409 104.457 22.7536 104.748 23.5561C105.046 24.3516 105.483 24.9801 106.058 25.4418C106.641 25.8963 107.354 26.1236 108.2 26.1236Z" fill="url(#paint0_linear_2444_81)"/>
<path d="M49.6031 12.6364H50.6031V11.6364H49.6031V12.6364ZM49.6031 15.6193V16.6193H50.6031V15.6193H49.6031ZM39.9298 15.6193H38.9298V16.6193H39.9298V15.6193ZM39.9298 12.6364V11.6364H38.9298V12.6364H39.9298ZM42.3482 29H41.3482V30H42.3482V29ZM43.03 8.34304L42.1843 7.80934L42.1806 7.81527L43.03 8.34304ZM44.8837 6.70241L44.4599 5.79666L44.8837 6.70241ZM49.2409 6.31889L49.0396 7.29843L49.0396 7.29843L49.2409 6.31889ZM50.3915 6.60653L51.36 6.85558L51.5902 5.96037L50.7158 5.66059L50.3915 6.60653ZM49.6244 9.58949L49.3333 10.5462L50.3328 10.8504L50.5929 9.83853L49.6244 9.58949ZM49.0065 9.44034L48.7837 10.4152L48.797 10.4182L48.8104 10.4209L49.0065 9.44034ZM46.6521 9.87713L45.8929 9.22634L45.8918 9.22764L46.6521 9.87713ZM46.2154 29V30H47.2154V29H46.2154ZM48.6031 12.6364V15.6193H50.6031V12.6364H48.6031ZM49.6031 14.6193H39.9298V16.6193H49.6031V14.6193ZM40.9298 15.6193V12.6364H38.9298V15.6193H40.9298ZM39.9298 13.6364H49.6031V11.6364H39.9298V13.6364ZM43.3482 29V11.0916H41.3482V29H43.3482ZM43.3482 11.0916C43.3482 10.1261 43.5472 9.4054 43.8794 8.87081L42.1806 7.81527C41.6037 8.74375 41.3482 9.85548 41.3482 11.0916H43.3482ZM43.8757 8.87672C44.2365 8.30495 44.7089 7.88825 45.3075 7.60817L44.4599 5.79666C43.5102 6.24101 42.7468 6.91806 42.1843 7.80935L43.8757 8.87672ZM45.3075 7.60817C45.9356 7.3143 46.6481 7.15909 47.4618 7.15909V5.15909C46.3863 5.15909 45.3801 5.3661 44.4599 5.79666L45.3075 7.60817ZM47.4618 7.15909C48.0785 7.15909 48.6019 7.20849 49.0396 7.29843L49.4422 5.33936C48.843 5.21623 48.1804 5.15909 47.4618 5.15909V7.15909ZM49.0396 7.29843C49.5493 7.40315 49.8814 7.4888 50.0672 7.55248L50.7158 5.66059C50.4044 5.55381 49.9695 5.4477 49.4422 5.33936L49.0396 7.29843ZM49.423 6.35749L48.656 9.34045L50.5929 9.83853L51.36 6.85558L49.423 6.35749ZM49.9156 8.63281C49.71 8.57022 49.4696 8.51314 49.2027 8.45976L48.8104 10.4209C49.0407 10.467 49.2122 10.5093 49.3333 10.5462L49.9156 8.63281ZM49.2294 8.46548C48.895 8.38906 48.5417 8.35511 48.1756 8.35511V10.3551C48.4202 10.3551 48.6209 10.378 48.7837 10.4152L49.2294 8.46548ZM48.1756 8.35511C47.3305 8.35511 46.4669 8.55671 45.8929 9.22634L47.4114 10.5279C47.434 10.5015 47.586 10.3551 48.1756 10.3551V8.35511ZM45.8918 9.22764C45.3915 9.81332 45.2154 10.5699 45.2154 11.3473H47.2154C47.2154 10.8463 47.3304 10.6228 47.4125 10.5266L45.8918 9.22764ZM45.2154 11.3473V29H47.2154V11.3473H45.2154ZM46.2154 28H42.3482V30H46.2154V28ZM52.6234 29H51.6234V30H52.6234V29ZM52.6234 12.6364V11.6364H51.6234V12.6364H52.6234ZM56.4799 12.6364H57.4799V11.6364H56.4799V12.6364ZM56.4799 29V30H57.4799V29H56.4799ZM52.9856 9.70668L52.3024 10.437L52.3088 10.4428L52.9856 9.70668ZM52.9856 6.74503L53.6624 7.48122L53.6688 7.4753L52.9856 6.74503ZM56.139 6.74503L55.4499 7.46973L55.456 7.47551L55.4622 7.48119L56.139 6.74503ZM56.139 9.70668L56.8218 10.4373L56.8222 10.4369L56.139 9.70668ZM53.6234 29V12.6364H51.6234V29H53.6234ZM52.6234 13.6364H56.4799V11.6364H52.6234V13.6364ZM55.4799 12.6364V29H57.4799V12.6364H55.4799ZM56.4799 28H52.6234V30H56.4799V28ZM54.5623 9.31392C54.1963 9.31392 53.9139 9.20174 53.6624 8.97051L52.3088 10.4428C52.938 11.0213 53.7067 11.3139 54.5623 11.3139V9.31392ZM53.6688 8.97641C53.4196 8.74331 53.3251 8.5097 53.3251 8.22585H51.3251C51.3251 9.09257 51.6709 9.84617 52.3024 10.4369L53.6688 8.97641ZM53.3251 8.22585C53.3251 7.93174 53.4217 7.70247 53.6624 7.48119L52.3088 6.00886C51.6688 6.59724 51.3251 7.35519 51.3251 8.22585H53.3251ZM53.6688 7.4753C53.9212 7.23916 54.2015 7.12713 54.5623 7.12713V5.12713C53.7015 5.12713 52.9307 5.42703 52.3024 6.01476L53.6688 7.4753ZM54.5623 7.12713C54.9333 7.12713 55.2094 7.24101 55.4499 7.46973L56.8281 6.02032C56.2021 5.42518 55.4271 5.12713 54.5623 5.12713V7.12713ZM55.4622 7.48119C55.7029 7.70247 55.7995 7.93175 55.7995 8.22585H57.7995C57.7995 7.35519 57.4558 6.59724 56.8158 6.00886L55.4622 7.48119ZM55.7995 8.22585C55.7995 8.5097 55.705 8.74331 55.4558 8.97641L56.8222 10.4369C57.4537 9.84617 57.7995 9.09257 57.7995 8.22585H55.7995ZM55.4563 8.97602C55.2167 9.1999 54.9385 9.31392 54.5623 9.31392V11.3139C55.4219 11.3139 56.1949 11.0231 56.8218 10.4373L55.4563 8.97602ZM64.3022 29V30H65.3022V29H64.3022ZM60.4456 29H59.4456V30H60.4456V29ZM60.4456 12.6364V11.6364H59.4456V12.6364H60.4456ZM64.1317 12.6364H65.1317V11.6364H64.1317V12.6364ZM64.1317 15.4169H63.1317V16.4169H64.1317V15.4169ZM64.3235 15.4169V16.4169H64.9937L65.2485 15.7969L64.3235 15.4169ZM66.1239 13.233L65.5792 12.3943L65.5759 12.3965L66.1239 13.233ZM72.1537 13.1477L71.6544 14.0142L71.6576 14.016L72.1537 13.1477ZM74.114 15.2464L73.2209 15.6964L73.2237 15.7019L74.114 15.2464ZM74.8064 18.581L73.8064 18.5755V18.581H74.8064ZM74.8064 29V30H75.8064V29H74.8064ZM70.9499 29H69.9499V30H70.9499V29ZM70.0976 16.6101L69.3573 17.2823L69.3615 17.287L70.0976 16.6101ZM65.9641 16.1307L66.4538 17.0026L66.4577 17.0004L65.9641 16.1307ZM64.739 17.3984L63.8585 16.9243L63.8538 16.9332L64.739 17.3984ZM63.3022 19.4119V29H65.3022V19.4119H63.3022ZM64.3022 28H60.4456V30H64.3022V28ZM61.4456 29V12.6364H59.4456V29H61.4456ZM60.4456 13.6364H64.1317V11.6364H60.4456V13.6364ZM63.1317 12.6364V15.4169H65.1317V12.6364H63.1317ZM64.1317 16.4169H64.3235V14.4169H64.1317V16.4169ZM65.2485 15.7969C65.5486 15.0663 66.0179 14.4979 66.6719 14.0694L65.5759 12.3965C64.5822 13.0475 63.8512 13.9351 63.3985 15.0369L65.2485 15.7969ZM66.6686 14.0716C67.3033 13.6593 68.1293 13.4233 69.2027 13.4233V11.4233C67.833 11.4233 66.6064 11.7271 65.5792 12.3943L66.6686 14.0716ZM69.2027 13.4233C70.1864 13.4233 70.992 13.6324 71.6544 14.0142L72.653 12.2813C71.6394 11.6971 70.4776 11.4233 69.2027 11.4233V13.4233ZM71.6576 14.016C72.3228 14.3961 72.8426 14.9456 73.2209 15.6964L75.007 14.7965C74.462 13.7149 73.675 12.8653 72.6499 12.2795L71.6576 14.016ZM73.2237 15.7019C73.6025 16.4422 73.8129 17.3868 73.8065 18.5755L75.8064 18.5864C75.8142 17.1615 75.563 15.8831 75.0042 14.791L73.2237 15.7019ZM73.8064 18.581V29H75.8064V18.581H73.8064ZM74.8064 28H70.9499V30H74.8064V28ZM71.9499 29V19.1776H69.9499V29H71.9499ZM71.9499 19.1776C71.9499 17.9112 71.618 16.7861 70.8337 15.9332L69.3615 17.287C69.7136 17.6699 69.9499 18.2564 69.9499 19.1776H71.9499ZM70.838 15.9378C70.0511 15.0713 68.982 14.6832 67.7645 14.6832V16.6832C68.5357 16.6832 69.022 16.913 69.3573 17.2823L70.838 15.9378ZM67.7645 14.6832C66.9374 14.6832 66.1635 14.8677 65.4705 15.261L66.4577 17.0004C66.8159 16.7971 67.2423 16.6832 67.7645 16.6832V14.6832ZM65.4744 15.2588C64.7808 15.6483 64.2412 16.2135 63.8585 16.9243L65.6194 17.8725C65.8333 17.4754 66.1105 17.1954 66.4538 17.0026L65.4744 15.2588ZM63.8538 16.9332C63.4701 17.6631 63.3022 18.5026 63.3022 19.4119H65.3022C65.3022 18.7445 65.4254 18.2417 65.6241 17.8637L63.8538 16.9332ZM81.9975 7.18182H82.9975V6.18182H81.9975V7.18182ZM81.6353 11.3047L80.6937 10.9677L80.6917 10.9734L81.6353 11.3047ZM80.6658 13.2223L81.4919 13.7859L81.4949 13.7814L80.6658 13.2223ZM79.2596 14.7777L78.7153 15.6166L79.3301 16.0155L79.8956 15.5493L79.2596 14.7777ZM77.4698 13.6165L76.6362 13.0641L76.0784 13.9058L76.9255 14.4554L77.4698 13.6165ZM78.4925 11.7095L79.4122 12.1023L79.4136 12.0988L78.4925 11.7095ZM78.9293 7.18182V6.18182H77.9293V7.18182H78.9293ZM80.9975 7.18182V9.35511H82.9975V7.18182H80.9975ZM80.9975 9.35511C80.9975 9.84978 80.9021 10.3855 80.6938 10.9677L82.5768 11.6417C82.8514 10.8744 82.9975 10.1105 82.9975 9.35511H80.9975ZM80.6917 10.9734C80.4868 11.5573 80.2029 12.1202 79.8367 12.6632L81.4949 13.7814C81.9526 13.1028 82.315 12.3873 82.5788 11.6359L80.6917 10.9734ZM79.8398 12.6587C79.4772 13.1901 79.0711 13.6371 78.6235 14.0061L79.8956 15.5493C80.4991 15.0519 81.0306 14.4619 81.4918 13.7859L79.8398 12.6587ZM79.8039 13.9388L78.0141 12.7776L76.9255 14.4554L78.7153 15.6166L79.8039 13.9388ZM78.3034 14.1689C78.729 13.5265 79.0983 12.8371 79.4122 12.1023L77.5729 11.3168C77.3043 11.9455 76.9918 12.5275 76.6362 13.0641L78.3034 14.1689ZM79.4136 12.0988C79.7645 11.2688 79.9293 10.3557 79.9293 9.37642H77.9293C77.9293 10.1301 77.803 10.7724 77.5714 11.3202L79.4136 12.0988ZM79.9293 9.37642V7.18182H77.9293V9.37642H79.9293ZM78.9293 8.18182H81.9975V6.18182H78.9293V8.18182ZM86.2615 28.2969L85.7592 29.1616L85.7654 29.1651L86.2615 28.2969ZM83.5236 25.3778L82.6312 25.8291L82.6322 25.8311L83.5236 25.3778ZM83.5236 16.4822L82.6312 16.0311L82.6302 16.033L83.5236 16.4822ZM86.2296 13.4993L86.7525 14.3517L86.7563 14.3493L86.2296 13.4993ZM93.1649 12.9134L92.822 13.8528L92.8309 13.8559L93.1649 12.9134ZM95.5513 14.4048L94.8516 15.1193L94.8553 15.1228L95.5513 14.4048ZM97.1919 16.983L96.2574 17.339L96.2582 17.3411L97.1919 16.983ZM97.7885 21.8729V22.8729H98.7885V21.8729H97.7885ZM84.3759 21.8729H83.3759V22.8729H84.3759V21.8729ZM84.3759 19.2734V18.2734H83.3759V19.2734H84.3759ZM94.0918 19.2734V20.2734H95.1014L95.0917 19.2638L94.0918 19.2734ZM93.6124 17.3026L92.7312 17.7754L92.7337 17.7799L93.6124 17.3026ZM92.302 15.9283L91.7859 16.7848L91.7907 16.7877L92.302 15.9283ZM88.2857 16.0028L88.8193 16.8486L88.8264 16.844L88.2857 16.0028ZM86.8901 17.4943L86.0102 17.019L86.0083 17.0227L86.8901 17.4943ZM86.3894 19.5078L85.3894 19.4981V19.5078H86.3894ZM86.9114 24.2273L86.0207 24.6819L86.0226 24.6857L86.9114 24.2273ZM88.3709 25.7827L87.8695 26.6479L87.8769 26.6521L88.3709 25.7827ZM92.0889 26.081L92.414 27.0267L92.4271 27.022L92.0889 26.081ZM93.2715 25.3672L92.588 24.6372L93.2715 25.3672ZM94.0279 24.206L94.1396 23.2122L93.3611 23.1247L93.0898 23.8596L94.0279 24.206ZM97.6287 24.6108L98.6014 24.8431L98.864 23.7434L97.7404 23.6171L97.6287 24.6108ZM96.329 27.1037L95.5857 26.4347L95.5853 26.4351L96.329 27.1037ZM93.9 28.7443L94.2621 29.6765L94.2679 29.6742L93.9 28.7443ZM90.5122 28.3196C89.0118 28.3196 87.7729 28.0088 86.7577 27.4286L85.7654 29.1651C87.1365 29.9486 88.7314 30.3196 90.5122 30.3196V28.3196ZM86.7638 27.4322C85.7492 26.8429 84.9694 26.015 84.415 24.9246L82.6322 25.8311C83.3562 27.2549 84.4016 28.373 85.7593 29.1616L86.7638 27.4322ZM84.416 24.9266C83.8608 23.8285 83.5648 22.5012 83.5648 20.9141H81.5648C81.5648 22.7502 81.908 24.3988 82.6312 25.8291L84.416 24.9266ZM83.5648 20.9141C83.5648 19.3584 83.8596 18.0401 84.417 16.9315L82.6302 16.033C81.9092 17.467 81.5648 19.1032 81.5648 20.9141H83.5648ZM84.416 16.9334C84.9835 15.8109 85.7616 14.9596 86.7525 14.3517L85.7066 12.6469C84.3822 13.4594 83.3563 14.5967 82.6312 16.0311L84.416 16.9334ZM86.7563 14.3493C87.7335 13.7438 88.9054 13.4233 90.3098 13.4233V11.4233C88.5892 11.4233 87.0409 11.8201 85.7028 12.6492L86.7563 14.3493ZM90.3098 13.4233C91.2083 13.4233 92.0433 13.5684 92.822 13.8527L93.5079 11.974C92.4968 11.6049 91.4284 11.4233 90.3098 11.4233V13.4233ZM92.8309 13.8559C93.5948 14.1266 94.2657 14.5455 94.8516 15.1193L96.251 13.6904C95.459 12.9148 94.539 12.3393 93.4989 11.9708L92.8309 13.8559ZM94.8553 15.1228C95.4314 15.6813 95.9038 16.4108 96.2574 17.3389L98.1264 16.627C97.6845 15.4671 97.0632 14.4777 96.2473 13.6868L94.8553 15.1228ZM96.2582 17.3411C96.6014 18.2358 96.7885 19.3441 96.7885 20.6903H98.7885C98.7885 19.1673 98.5779 17.804 98.1256 16.6248L96.2582 17.3411ZM96.7885 20.6903V21.8729H98.7885V20.6903H96.7885ZM97.7885 20.8729H84.3759V22.8729H97.7885V20.8729ZM85.3759 21.8729V19.2734H83.3759V21.8729H85.3759ZM84.3759 20.2734H94.0918V18.2734H84.3759V20.2734ZM95.0917 19.2638C95.0833 18.383 94.8912 17.5617 94.4911 16.8252L92.7337 17.7799C92.9586 18.1939 93.0861 18.6866 93.0918 19.2831L95.0917 19.2638ZM94.4935 16.8297C94.0963 16.0894 93.5325 15.4967 92.8133 15.0689L91.7907 16.7877C92.1937 17.0274 92.5035 17.351 92.7312 17.7754L94.4935 16.8297ZM92.8181 15.0717C92.0872 14.6313 91.2573 14.4276 90.3631 14.4276V16.4276C90.9462 16.4276 91.4088 16.5576 91.7859 16.7848L92.8181 15.0717ZM90.3631 14.4276C89.4051 14.4276 88.5205 14.6631 87.7449 15.1617L88.8264 16.844C89.2441 16.5755 89.7444 16.4276 90.3631 16.4276V14.4276ZM87.7521 15.1571C87.0108 15.6248 86.4261 16.2492 86.0103 17.019L87.7699 17.9696C88.0217 17.5036 88.3673 17.1337 88.8193 16.8486L87.7521 15.1571ZM86.0083 17.0227C85.6012 17.7837 85.398 18.6146 85.3894 19.4981L87.3893 19.5175C87.3949 18.9379 87.5255 18.4266 87.7719 17.966L86.0083 17.0227ZM85.3894 19.5078V21.777H87.3894V19.5078H85.3894ZM85.3894 21.777C85.3894 22.8491 85.5855 23.8292 86.0207 24.6819L87.8021 23.7727C87.5413 23.2617 87.3894 22.6083 87.3894 21.777H85.3894ZM86.0226 24.6857C86.4535 25.5211 87.0705 26.1848 87.8695 26.6479L88.8723 24.9175C88.4213 24.6561 88.0652 24.2829 87.8001 23.7689L86.0226 24.6857ZM87.8769 26.6521C88.6758 27.1061 89.5832 27.3153 90.5655 27.3153V25.3153C89.8717 25.3153 89.316 25.1695 88.8649 24.9132L87.8769 26.6521ZM90.5655 27.3153C91.2191 27.3153 91.839 27.2243 92.414 27.0267L91.7639 25.1353C91.4298 25.2501 91.0341 25.3153 90.5655 25.3153V27.3153ZM92.4271 27.022C93.0026 26.8152 93.516 26.508 93.9549 26.0972L92.588 24.6372C92.3593 24.8513 92.0844 25.02 91.7507 25.1399L92.4271 27.022ZM93.9549 26.0972C94.4108 25.6704 94.7458 25.1486 94.966 24.5523L93.0898 23.8596C92.969 24.1867 92.7997 24.439 92.588 24.6372L93.9549 26.0972ZM93.9161 25.1997L97.517 25.6045L97.7404 23.6171L94.1396 23.2122L93.9161 25.1997ZM96.6561 24.3785C96.4666 25.1719 96.1104 25.8517 95.5857 26.4347L97.0723 27.7727C97.826 26.9352 98.3363 25.9531 98.6014 24.8431L96.6561 24.3785ZM95.5853 26.4351C95.0687 27.0098 94.3934 27.4737 93.5321 27.8145L94.2679 29.6742C95.3811 29.2337 96.3251 28.6038 97.0727 27.7722L95.5853 26.4351ZM93.5379 27.8122C92.6867 28.1429 91.6839 28.3196 90.5122 28.3196V30.3196C91.8832 30.3196 93.1389 30.1128 94.2621 29.6764L93.5379 27.8122ZM103.672 28.2969L103.127 29.1352L103.672 28.2969ZM101.264 25.4205L102.17 24.9959L101.264 25.4205ZM101.275 16.2372L100.373 15.8043L100.372 15.8065L101.275 16.2372ZM103.714 13.3928L104.244 14.2408L104.249 14.2381L103.714 13.3928ZM109.499 12.9134L109.032 13.7974L109.04 13.8016L109.499 12.9134ZM110.969 14.0746L110.187 14.6978L110.192 14.7038L110.969 14.0746ZM111.811 15.3423L110.917 15.7895L111.193 16.3423H111.811V15.3423ZM111.971 15.3423V16.3423H112.971V15.3423H111.971ZM111.971 7.18182V6.18182H110.971V7.18182H111.971ZM115.838 7.18182H116.838V6.18182H115.838V7.18182ZM115.838 29V30H116.838V29H115.838ZM112.045 29H111.045V30H112.045V29ZM112.045 26.4219H113.045V25.4219H112.045V26.4219ZM111.811 26.4219V25.4219H111.193L110.917 25.9747L111.811 26.4219ZM110.948 27.6896L111.708 28.3394L111.713 28.3334L110.948 27.6896ZM109.457 28.8189L109.908 29.7113L109.457 28.8189ZM110.288 25.4631L110.895 26.2572L110.902 26.2524L110.288 25.4631ZM111.598 23.5987L110.662 23.2476V23.2476L111.598 23.5987ZM111.598 18.0589L110.661 18.4082L110.664 18.4156L111.598 18.0589ZM110.298 16.2372L109.692 17.0324L109.697 17.036L110.298 16.2372ZM106.048 16.2585L105.434 15.4692L106.048 16.2585ZM104.748 18.1122L103.81 17.7657L104.748 18.1122ZM104.748 23.5561L103.808 23.8972L103.812 23.9072L104.748 23.5561ZM106.058 25.4418L105.432 26.2218L105.443 26.2301L106.058 25.4418ZM107.124 28.2876C106.019 28.2876 105.06 28.007 104.217 27.4586L103.127 29.1352C104.315 29.9078 105.657 30.2876 107.124 30.2876V28.2876ZM104.217 27.4586C103.38 26.9139 102.692 26.1094 102.17 24.9959L100.359 25.845C101.016 27.2457 101.933 28.3589 103.127 29.1352L104.217 27.4586ZM102.17 24.9959C101.658 23.9047 101.38 22.5311 101.38 20.8395H99.3799C99.3799 22.7416 99.6915 24.422 100.359 25.845L102.17 24.9959ZM101.38 20.8395C101.38 19.1257 101.662 17.7482 102.177 16.6679L100.372 15.8065C99.6948 17.2262 99.3799 18.9169 99.3799 20.8395H101.38ZM102.176 16.6701C102.711 15.5565 103.406 14.7647 104.244 14.2408L103.184 12.5448C101.977 13.2993 101.046 14.4037 100.373 15.8043L102.176 16.6701ZM104.249 14.2381C105.105 13.6969 106.058 13.4233 107.134 13.4233V11.4233C105.696 11.4233 104.369 11.796 103.18 12.5474L104.249 14.2381ZM107.134 13.4233C107.988 13.4233 108.601 13.5698 109.032 13.7974L109.967 12.0293C109.161 11.6035 108.198 11.4233 107.134 11.4233V13.4233ZM109.04 13.8016C109.557 14.069 109.928 14.3728 110.187 14.6978L111.751 13.4514C111.286 12.8673 110.677 12.3969 109.959 12.0251L109.04 13.8016ZM110.192 14.7038C110.521 15.1105 110.758 15.4722 110.917 15.7895L112.705 14.8951C112.466 14.417 112.142 13.9336 111.747 13.4454L110.192 14.7038ZM111.811 16.3423H111.971V14.3423H111.811V16.3423ZM112.971 15.3423V7.18182H110.971V15.3423H112.971ZM111.971 8.18182H115.838V6.18182H111.971V8.18182ZM114.838 7.18182V29H116.838V7.18182H114.838ZM115.838 28H112.045V30H115.838V28ZM113.045 29V26.4219H111.045V29H113.045ZM112.045 25.4219H111.811V27.4219H112.045V25.4219ZM110.917 25.9747C110.762 26.284 110.524 26.641 110.183 27.0459L111.713 28.3334C112.126 27.8434 112.462 27.3552 112.705 26.8691L110.917 25.9747ZM110.188 27.0399C109.913 27.3621 109.528 27.6623 109.005 27.9265L109.908 29.7113C110.621 29.3505 111.231 28.8978 111.708 28.3394L110.188 27.0399ZM109.005 27.9265C108.568 28.1478 107.957 28.2876 107.124 28.2876V30.2876C108.165 30.2876 109.11 30.115 109.908 29.7113L109.005 27.9265ZM108.2 27.1236C109.207 27.1236 110.124 26.8479 110.895 26.2571L109.68 24.669C109.301 24.9589 108.826 25.1236 108.2 25.1236V27.1236ZM110.902 26.2524C111.645 25.6738 112.182 24.8892 112.534 23.9498L110.662 23.2476C110.417 23.8991 110.08 24.3574 109.674 24.6737L110.902 26.2524ZM112.534 23.9498C112.884 23.0183 113.045 21.968 113.045 20.8182H111.045C111.045 21.7849 110.909 22.5882 110.662 23.2476L112.534 23.9498ZM113.045 20.8182C113.045 19.669 112.884 18.6232 112.532 17.7022L110.664 18.4156C110.909 19.0572 111.045 19.8509 111.045 20.8182H113.045ZM112.535 17.7097C112.188 16.7785 111.65 16.0036 110.9 15.4384L109.697 17.036C110.097 17.3373 110.426 17.7769 110.661 18.4082L112.535 17.7097ZM110.905 15.442C110.135 14.855 109.212 14.5874 108.2 14.5874V16.5874C108.849 16.5874 109.325 16.7529 109.692 17.0324L110.905 15.442ZM108.2 14.5874C107.159 14.5874 106.215 14.8618 105.434 15.4692L106.662 17.0479C107.031 16.7604 107.521 16.5874 108.2 16.5874V14.5874ZM105.434 15.4692C104.69 16.0478 104.156 16.8297 103.81 17.7657L105.686 18.4587C105.923 17.818 106.255 17.3642 106.662 17.0479L105.434 15.4692ZM103.81 17.7657C103.47 18.6854 103.311 19.7082 103.311 20.8182H105.311C105.311 19.8969 105.443 19.1157 105.686 18.4587L103.81 17.7657ZM103.311 20.8182C103.311 21.9348 103.47 22.966 103.808 23.8972L105.688 23.215C105.443 22.5411 105.311 21.747 105.311 20.8182H103.311ZM103.812 23.9072C104.163 24.845 104.697 25.6314 105.432 26.2217L106.684 24.6618C106.269 24.3288 105.929 23.8582 105.684 23.205L103.812 23.9072ZM105.443 26.2301C106.226 26.8412 107.165 27.1236 108.2 27.1236V25.1236C107.544 25.1236 107.055 24.9514 106.673 24.6534L105.443 26.2301Z" fill="white" fill-opacity="0.05" mask="url(#path-5-inside-1_2444_81)"/>
<defs>
<linearGradient id="paint0_linear_2444_81" x1="38.9998" y1="9" x2="113.5" y2="38" gradientUnits="userSpaceOnUse">
<stop stop-color="#2E6CE3"/>
<stop offset="1" stop-color="#0040BD"/>
</linearGradient>
</defs>
</svg>
