<svg height="800" width="800" version="1.1" id="_x32_" xmlns="http://www.w3.org/2000/svg" viewBox="0 0 512 512" xml:space="preserve"><path class="st0" fill="#3385FF" d="M474.658 121.941 304.895 60.196v18.563l163.782 59.6a16.418 16.418 0 0 1 4.98 2.823 14.278 14.278 0 0 1 2.082 1.877c4.504 4.783 6.187 11.911 3.837 18.571L362.74 482.528c-3.427 9.408-13.859 14.257-23.271 10.824L132.982 418.22c-3.095-1.14-5.717-3.024-7.669-5.445h-19.774a35.437 35.437 0 0 0 21.453 21.863l206.488 75.19c13.118 4.775 27.107 1.416 36.594-7.531 1.345-1.214 2.554-2.556 3.695-4.038 2.224-2.89 4.108-6.123 5.382-9.75l116.831-320.898c6.726-18.496-2.824-38.943-21.324-45.67z"/><path class="st0" fill="#3385FF" d="M307.855 319.014c7.062 3.963 15.673 5.118 23.14 2.354 11.636-4.44 17.282-14.668 18.496-26.362.54-5.52.134-11.367-1.14-17.088a52.115 52.115 0 0 0-1.348-5.311c-1.55-4.849-3.434-9.893-5.516-15.002-3.568-9.073-7.665-18.228-10.831-26.429-2.354-6.258-4.168-11.912-4.842-16.545-.067-.603-.13-1.214-.204-1.75 0-.134 0-.268-.063-.402-.067-.611-.272-.812-.403-.879-.204-.126-.473-.067-.946.402-.067.075-.131.134-.268.268-.272.269-.54.537-.876.812-3.494 3.292-8.674 6.592-14.726 9.952-1.143.671-2.284 1.274-3.434 1.884v92.279c.808.544 1.616 1.08 2.488 1.616.138.066.344.133.473.201zM422.98 209.11c.008-4.947 1.129-10.429 2.79-15.956 2.287 4.581 8.332 7.076 13.085 5.282 7.11-2.674 8.309-11.159 6.038-18.407-2.47-7.896-7.658-17.364-8.067-22.586l-.19-.499-.458.261c-3.672 3.739-13.721 7.658-20.705 12.12-6.394 4.089-10.928 11.367-7.199 17.974 2.492 4.432 8.72 6.407 13.412 4.366-2.272 5.304-4.939 10.227-8.123 14.019l9.417 3.426z"/><path fill="#3385FF" class="st0" d="M304.88 377.116v-53.41c.004.008.012.015.015.015v-6.526c-.004 0-.011-.008-.015-.014v-98.127c.004.008.012.008.015.014v-7.33c-.004 0-.011.008-.011.008l-.004-176.11C304.868 15.948 288.935.008 269.243 0H49.504c-19.691 0-35.64 15.956-35.64 35.636v341.48c0 19.68 15.948 35.629 35.64 35.636h219.74c19.691-.007 35.624-15.948 35.636-35.636zm-273.53 0V35.636c.027-10.027 8.131-18.131 18.154-18.153h219.74c10.023.022 18.128 8.134 18.153 18.153v341.48c-.026 10.018-8.13 18.13-18.153 18.146H49.504c-10.023-.015-18.127-8.12-18.154-18.146z"/><path class="st0" fill="#3385FF" d="M189.632 186.383c-1.747 0-3.441.141-5.11.417a31.4 31.4 0 0 0 6.477-19.137c0-17.424-14.186-31.614-31.618-31.614-17.434 0-31.621 14.19-31.621 31.614a31.406 31.406 0 0 0 6.477 19.137 31.312 31.312 0 0 0-5.11-.417c-17.446 0-31.621 14.19-31.621 31.614 0 17.439 14.176 31.629 31.621 31.629 9.747 0 18.47-4.44 24.262-11.397-.983 13.907-3.151 27.174-7.263 38.466h26.496c-4.1-11.292-6.268-24.559-7.266-38.466 5.806 6.957 14.529 11.397 24.276 11.397 17.435 0 31.61-14.19 31.61-31.629 0-17.424-14.176-31.614-31.61-31.614zm65.015 153.205c-.749 0-1.471.06-2.183.171a13.551 13.551 0 0 0 2.787-8.231c0-7.501-6.108-13.616-13.61-13.616-7.513 0-13.621 6.115-13.621 13.616 0 3.099 1.05 5.952 2.783 8.231a14.085 14.085 0 0 0-2.194-.171c-7.512 0-13.61 6.108-13.61 13.602 0 7.516 6.097 13.616 13.61 13.616 4.19 0 7.948-1.914 10.443-4.902-.42 5.99-1.367 11.688-3.124 16.567h11.415c-1.773-4.879-2.707-10.578-3.14-16.567 2.51 2.987 6.265 4.902 10.444 4.902 7.512 0 13.609-6.1 13.609-13.616 0-7.494-6.097-13.602-13.609-13.602zM103.759 77.738c0-7.501-6.108-13.602-13.624-13.602-.734 0-1.472.06-2.194.164a13.465 13.465 0 0 0 2.786-8.231c0-7.494-6.097-13.61-13.594-13.61-7.516 0-13.624 6.116-13.624 13.61 0 3.099 1.039 5.96 2.786 8.231a15.184 15.184 0 0 0-2.194-.164c-7.501 0-13.61 6.101-13.61 13.602 0 7.509 6.108 13.617 13.61 13.617 4.19 0 7.948-1.922 10.444-4.909-.436 5.989-1.367 11.688-3.128 16.567H82.82c-1.762-4.879-2.692-10.578-3.129-16.567 2.496 2.987 6.254 4.909 10.444 4.909 7.515.001 13.624-6.108 13.624-13.617z"/></svg>