<svg xmlns="http://www.w3.org/2000/svg" width="7.231" height="12"><path d="M 6.9 1.999 C 6.591 1.412 6.108 0.923 5.509 0.569 C 4.911 0.216 4.188 0 3.404 0 C 2.438 -0.002 1.635 0.249 1.028 0.598 C 0.42 0.946 0.158 1.35 0.158 1.35 C 0.055 1.439 -0.002 1.568 0 1.703 C 0.003 1.838 0.065 1.965 0.171 2.05 L 1.013 2.724 C 1.184 2.862 1.43 2.856 1.596 2.712 C 1.596 2.712 1.699 2.525 2.023 2.34 C 2.349 2.156 2.772 2.008 3.404 2.006 C 3.955 2.004 4.436 2.21 4.764 2.491 C 4.927 2.63 5.048 2.786 5.123 2.929 C 5.198 3.073 5.226 3.199 5.225 3.294 C 5.224 3.617 5.161 3.828 5.071 4.008 C 5.002 4.142 4.911 4.261 4.795 4.377 C 4.622 4.55 4.388 4.709 4.124 4.856 C 3.861 5.005 3.577 5.136 3.29 5.294 C 2.962 5.476 2.615 5.736 2.359 6.127 C 2.231 6.321 2.132 6.542 2.068 6.775 C 2.004 7.009 1.975 7.254 1.975 7.503 L 1.975 7.989 C 1.975 8.24 2.179 8.444 2.43 8.444 L 3.526 8.444 C 3.777 8.444 3.981 8.24 3.981 7.989 L 3.981 7.503 C 3.981 7.407 3.992 7.345 4.002 7.306 C 4.02 7.247 4.03 7.232 4.06 7.196 C 4.09 7.162 4.151 7.11 4.264 7.048 C 4.428 6.955 4.693 6.831 4.992 6.669 C 5.44 6.424 5.985 6.091 6.445 5.542 C 6.673 5.268 6.875 4.939 7.015 4.559 C 7.155 4.179 7.231 3.752 7.231 3.294 C 7.231 2.83 7.105 2.39 6.9 1.999 Z M 2.978 9.526 C 2.295 9.526 1.741 10.08 1.741 10.763 C 1.741 11.446 2.295 12 2.978 12 C 3.661 12 4.215 11.446 4.215 10.763 C 4.215 10.08 3.661 9.526 2.978 9.526 Z" fill="rgb(255, 13, 13)"></path></svg>