<svg width="18" height="18" viewBox="0 0 18 18" fill="none" xmlns="http://www.w3.org/2000/svg">
<path d="M15.9996 18C16.5586 18 17.0332 17.8066 17.4199 17.4199C17.8066 17.0332 18 16.5586 18 15.9996V2.00039C18 1.46601 17.8066 1.00195 17.4199 0.601171C17.0332 0.200392 16.5586 0 15.9996 0H6.99961C6.46523 0 6.00469 0.200392 5.61797 0.601171C5.23125 1.00195 5.03789 1.46953 5.03789 2.00039V4.00078H6.99961V2.00039H15.9996V15.9996H6.99961V13.0008H5.03789V15.9996C5.03789 16.5586 5.23125 17.0332 5.61797 17.4199C6.00469 17.8066 6.46523 18 6.99961 18H15.9996ZM9 4.59844V6.99961H0V9.99844H9V12.3996L13.0008 8.51836L9 4.59844Z" fill="#8C8C8C"/>
</svg>
