<svg width="12" height="12" viewBox="0 0 12 12" fill="none" xmlns="http://www.w3.org/2000/svg">
<path d="M5.03996 0.719971C2.78902 0.719971 0.959961 2.54903 0.959961 4.79997C0.959961 7.05091 2.78902 8.87997 5.03996 8.87997C5.93059 8.87997 6.75371 8.5931 7.42496 8.10747L10.5825 11.2575L11.2575 10.5825L8.13746 7.45497C8.75059 6.7406 9.11996 5.81341 9.11996 4.79997C9.11996 2.54903 7.2909 0.719971 5.03996 0.719971ZM5.03996 1.19997C7.03121 1.19997 8.63996 2.80872 8.63996 4.79997C8.63996 6.79122 7.03121 8.39997 5.03996 8.39997C3.04871 8.39997 1.43996 6.79122 1.43996 4.79997C1.43996 2.80872 3.04871 1.19997 5.03996 1.19997Z" fill="black"/>
</svg>
