<svg xmlns="http://www.w3.org/2000/svg" width="18" height="18"><path d="M 16.5 3.638 L 16.5 12.555 C 16.5 13.283 15.907 13.95 15.18 14.04 L 14.947 14.07 C 13.717 14.235 11.985 14.745 10.59 15.33 C 10.102 15.533 9.562 15.165 9.562 14.633 L 9.562 4.2 C 9.562 3.923 9.72 3.668 9.967 3.533 C 11.34 2.79 13.417 2.13 14.827 2.01 L 14.872 2.01 C 15.772 2.01 16.5 2.738 16.5 3.638 Z M 8.031 3.533 C 6.658 2.79 4.581 2.13 3.171 2.01 L 3.118 2.01 C 2.218 2.01 1.491 2.738 1.491 3.638 L 1.491 12.555 C 1.491 13.283 2.083 13.95 2.811 14.04 L 3.043 14.07 C 4.273 14.235 6.006 14.745 7.401 15.33 C 7.888 15.533 8.428 15.165 8.428 14.633 L 8.428 4.2 C 8.431 3.921 8.277 3.664 8.031 3.533 Z M 3.749 5.805 L 5.436 5.805 C 5.747 5.805 5.999 6.057 5.999 6.367 C 5.999 6.678 5.747 6.93 5.436 6.93 L 3.749 6.93 C 3.438 6.93 3.186 6.678 3.186 6.367 C 3.186 6.057 3.438 5.805 3.749 5.805 Z M 5.999 9.18 L 3.749 9.18 C 3.438 9.18 3.186 8.928 3.186 8.618 C 3.186 8.307 3.438 8.055 3.749 8.055 L 5.999 8.055 C 6.309 8.055 6.561 8.307 6.561 8.618 C 6.561 8.928 6.309 9.18 5.999 9.18 Z" fill="rgb(255, 255, 255)"></path></svg>